<?xml version="1.0" encoding="UTF-8"?>
<svg width="120" height="120" viewBox="0 0 120 120" xmlns="http://www.w3.org/2000/svg">
  <defs>
    <linearGradient id="tiredGradient" x1="0%" y1="0%" x2="100%" y2="100%">
      <stop offset="0%" style="stop-color:#C0C0C0;stop-opacity:1" />
      <stop offset="100%" style="stop-color:#A9A9A9;stop-opacity:1" />
    </linearGradient>
  </defs>
  <g transform="translate(10,10)">
    <!-- Body -->
    <ellipse cx="50" cy="60" rx="40" ry="30" fill="url(#tiredGradient)"/>
    <!-- Head -->
    <circle cx="50" cy="40" r="25" fill="url(#tiredGradient)"/>
    <!-- Ears -->
    <path d="M30 25 L40 40 L25 40 Z" fill="url(#tiredGradient)"/>
    <path d="M70 25 L75 40 L60 40 Z" fill="url(#tiredGradient)"/>
    <!-- Sleepy Eyes -->
    <line x1="35" y1="35" x2="45" y2="35" stroke="black" stroke-width="2"/>
    <line x1="55" y1="35" x2="65" y2="35" stroke="black" stroke-width="2"/>
    <!-- Nose -->
    <path d="M47 45 L53 45 L50 48 Z" fill="#FFB6C1"/>
    <!-- Sleepy Mouth -->
    <path d="M45 50 Q 50 45 55 50" stroke="black" stroke-width="2" fill="none"/>
    <!-- Whiskers -->
    <line x1="30" y1="45" x2="15" y2="40" stroke="white" stroke-width="1"/>
    <line x1="30" y1="48" x2="15" y2="48" stroke="white" stroke-width="1"/>
    <line x1="30" y1="51" x2="15" y2="56" stroke="white" stroke-width="1"/>
    <line x1="70" y1="45" x2="85" y2="40" stroke="white" stroke-width="1"/>
    <line x1="70" y1="48" x2="85" y2="48" stroke="white" stroke-width="1"/>
    <line x1="70" y1="51" x2="85" y2="56" stroke="white" stroke-width="1"/>
    <!-- Drooping Tail -->
    <path d="M90 60 Q 95 70 85 75" stroke="url(#tiredGradient)" stroke-width="8" fill="none"/>
  </g>
</svg>
